<?xml version="1.0" standalone="no"?>
<!DOCTYPE svg PUBLIC "-//W3C//DTD SVG 20010904//EN"
 "http://www.w3.org/TR/2001/REC-SVG-20010904/DTD/svg10.dtd">
<svg version="1.0" xmlns="http://www.w3.org/2000/svg"
 width="1080.000000pt" height="1080.000000pt" viewBox="0 0 1080.000000 1080.000000"
 preserveAspectRatio="xMidYMid meet">

<g transform="translate(0.000000,1080.000000) scale(0.100000,-0.100000)"
fill="#000000" stroke="none">
<path d="M0 5400 l0 -5400 5398 2 5397 3 0 5395 0 5395 -5397 3 -5398 2 0
-5400z m3746 1223 c-30 -82 -87 -231 -126 -333 -40 -102 -128 -331 -196 -510
-161 -420 -146 -390 -218 -448 -114 -93 -399 -250 -431 -238 -7 2 -15 15 -18
28 -3 13 -26 77 -52 143 -26 66 -66 170 -88 230 l-42 110 -5 -292 c-3 -160 -7
-294 -10 -296 -13 -13 -269 -77 -306 -77 -16 0 -16 1 -1 18 9 10 24 36 34 57
17 37 18 90 21 662 l3 621 92 7 c51 4 114 5 141 3 l49 -3 94 -245 c51 -135
100 -263 108 -285 69 -192 165 -430 171 -429 5 0 135 222 289 492 361 633 438
769 494 869 25 45 47 78 49 73 2 -5 -21 -76 -52 -157z m-856 -97 c171 -30 329
-81 494 -159 l88 -42 -19 -24 -19 -23 -75 30 c-255 106 -573 160 -874 149
-276 -10 -538 -69 -792 -178 l-43 -18 -2 -658 -3 -658 -27 -2 -26 -2 -7 102
c-4 56 -5 360 -3 676 l3 574 148 68 c241 110 337 139 612 179 88 13 445 4 545
-14z m4735 -520 c99 -42 49 -186 -64 -186 -86 0 -134 73 -94 142 30 51 96 69
158 44z m-2114 -57 c52 -33 81 -33 99 2 8 14 21 19 56 19 42 0 45 -1 38 -22
-38 -124 -125 -161 -225 -97 -52 33 -83 33 -94 -2 -5 -15 -16 -19 -55 -19
l-49 0 15 45 c35 102 124 133 215 74z m-1964 -147 l5 -150 -34 -33 -33 -34 -3
120 c-2 111 -1 124 25 186 15 37 29 66 31 64 3 -2 6 -71 9 -153z m832 -141
c-51 -254 -75 -325 -125 -375 -52 -51 -98 -68 -193 -69 -107 -2 -162 14 -213
61 l-39 37 60 59 59 59 38 -32 c51 -41 109 -43 148 -4 14 14 28 36 31 47 31
143 56 298 51 311 -5 15 -21 16 -116 13 -69 -2 -110 1 -110 7 0 6 4 26 9 45 5
19 12 47 15 62 l6 28 208 2 c114 2 210 1 214 -2 3 -3 -16 -115 -43 -249z
m2493 123 c16 -71 36 -167 46 -214 10 -47 22 -84 27 -83 9 1 260 392 268 416
1 5 48 10 104 11 l102 1 -27 -46 c-15 -26 -110 -180 -212 -343 l-185 -296 -97
0 -97 0 -10 38 c-6 20 -28 118 -50 217 -22 99 -52 229 -66 290 -14 60 -25 116
-25 125 0 13 16 15 97 14 l97 -2 28 -128z m1700 91 c5 -5 1 -34 -17 -112 -5
-22 -3 -23 56 -23 l62 0 -7 -32 c-4 -18 -9 -50 -13 -70 l-6 -38 -62 0 -62 0
-17 -82 c-27 -139 -19 -166 48 -154 41 8 44 4 52 -65 l6 -54 -34 -13 c-19 -6
-66 -12 -104 -12 -58 0 -76 4 -107 25 -71 49 -81 108 -48 268 l18 87 -38 0
c-44 0 -44 0 -25 80 12 55 13 55 53 58 l40 3 12 70 13 69 87 0 c48 0 90 -2 93
-5z m-4892 -190 c-44 -248 -215 -466 -467 -594 -33 -17 -65 -37 -70 -44 -5 -6
-24 -52 -43 -102 -18 -49 -55 -148 -83 -219 -58 -151 -46 -156 -127 59 -29 77
-56 144 -60 148 -5 6 -315 -49 -315 -56 0 -1 -9 -18 -19 -37 -30 -55 -76 -107
-131 -149 -132 -100 -190 -111 -604 -111 l-319 0 -1 130 -2 130 98 0 c107 0
353 21 545 45 806 101 1343 382 1560 815 24 47 45 78 47 70 2 -8 -2 -46 -9
-85z m1161 74 c68 -14 125 -52 163 -109 26 -38 30 -53 30 -114 1 -119 -34
-193 -122 -256 -67 -49 -121 -63 -219 -58 -104 5 -153 26 -206 88 -59 69 -72
160 -36 256 56 150 215 228 390 193z m605 0 c24 -6 54 -22 66 -34 26 -27 38
-24 38 11 0 24 1 24 95 24 52 0 95 -3 95 -7 0 -5 -9 -44 -19 -88 -10 -44 -34
-160 -52 -257 l-34 -178 -87 0 c-79 0 -88 2 -88 19 0 17 -3 17 -47 -5 -106
-54 -231 -17 -291 86 -24 40 -27 56 -27 135 0 74 4 98 23 137 62 127 195 190
328 157z m742 -1 c123 -30 186 -109 186 -233 1 -118 -64 -219 -176 -276 -65
-33 -195 -38 -270 -10 -67 26 -121 78 -144 138 -33 87 0 224 71 296 81 80 215
115 333 85z m1877 1 c67 -17 101 -37 139 -79 20 -22 36 -44 36 -49 0 -4 -35
-24 -77 -43 l-77 -36 -27 29 c-34 37 -73 46 -123 28 -56 -19 -86 -66 -86 -134
0 -43 5 -57 26 -79 39 -38 107 -37 154 4 19 16 38 29 43 30 10 0 127 -73 127
-80 0 -15 -77 -82 -118 -102 -40 -19 -63 -23 -147 -23 -93 0 -104 2 -154 31
-30 17 -68 49 -85 73 -29 41 -31 48 -31 135 0 76 4 98 24 136 68 128 232 197
376 159z m1085 -20 c86 -37 140 -121 140 -219 0 -70 -43 -162 -105 -222 -74
-73 -237 -100 -346 -59 -94 36 -147 107 -156 210 -9 99 52 215 141 271 86 53
228 61 326 19z m630 21 c0 -8 -11 -68 -25 -136 -4 -19 -13 -22 -67 -26 -56 -4
-64 -8 -93 -41 -24 -27 -34 -53 -44 -104 -6 -37 -19 -103 -29 -145 l-17 -78
-93 0 c-84 0 -93 2 -89 18 3 9 27 128 54 264 l48 248 89 0 88 0 -6 -25 c-8
-30 -6 -30 39 -4 54 32 145 50 145 29z m-2160 -12 c0 -7 -23 -125 -50 -262
-28 -137 -50 -250 -50 -252 0 -1 -41 -4 -90 -6 -81 -3 -90 -1 -90 15 0 15 80
429 95 495 5 21 10 22 95 22 65 0 90 -3 90 -12z m-4075 -670 c-9 -255 -31
-339 -118 -461 -94 -130 -223 -233 -454 -363 -169 -94 -322 -188 -367 -223
-38 -30 -40 -31 -65 -15 -14 9 -35 25 -46 34 -22 19 -171 108 -360 215 -66 37
-150 88 -186 114 -82 58 -170 136 -162 145 16 15 59 3 97 -27 88 -72 227 -159
486 -304 69 -39 141 -80 160 -91 l35 -21 70 43 c39 23 106 62 150 86 336 181
496 297 585 426 89 129 103 178 108 384 4 172 4 175 30 203 14 15 30 27 34 27
5 0 6 -78 3 -172z m1245 -37 c0 -4 -22 -6 -49 -3 l-49 4 -7 -42 c-4 -23 -4
-82 0 -131 7 -89 7 -89 -16 -89 l-24 0 3 131 3 131 -50 -3 c-28 -2 -51 -1 -51
3 0 7 217 16 233 10 4 -2 7 -7 7 -11z m669 10 c14 -4 26 -12 29 -20 3 -10 0
-11 -16 -2 -11 6 -42 11 -67 11 -38 0 -52 -5 -76 -29 -25 -26 -29 -37 -29 -88
0 -68 26 -120 65 -128 14 -3 35 -7 48 -10 13 -2 37 5 56 16 30 18 32 18 29 2
-7 -38 -134 -39 -182 -2 -71 56 -75 162 -8 222 35 31 98 43 151 28z m434 -5
c18 -7 45 -28 60 -45 36 -43 38 -119 5 -168 -55 -80 -181 -79 -236 2 -47 68
-22 168 51 204 49 25 76 26 120 7z m731 8 c29 -11 17 -20 -22 -16 -74 7 -77
-49 -5 -103 21 -16 43 -36 50 -45 15 -18 16 -55 3 -80 -23 -42 -131 -46 -139
-5 -3 17 -2 18 14 2 17 -18 27 -21 60 -17 62 6 59 51 -9 114 -30 28 -57 61
-61 73 -15 52 52 99 109 77z m313 -11 c2 -4 -20 -6 -48 -4 l-50 3 3 -131 c3
-130 3 -131 -19 -131 -23 0 -23 2 -23 130 l0 130 -45 0 c-25 0 -45 3 -45 8 0
10 224 5 227 -5z m955 1 c22 -14 4 -22 -23 -10 -44 18 -107 5 -136 -29 -18
-20 -23 -38 -23 -80 0 -66 15 -102 51 -121 37 -19 99 -18 128 2 22 16 23 15
19 -2 -2 -14 -16 -21 -51 -28 -97 -17 -176 39 -185 133 -3 39 1 52 26 87 21
29 42 45 69 52 36 10 106 8 125 -4z m1037 1 c47 -24 51 -71 9 -105 -20 -16
-20 -16 6 -33 54 -36 24 -119 -48 -133 -35 -6 -86 10 -86 27 0 8 4 8 14 0 25
-21 77 -16 98 9 34 42 17 92 -38 106 -24 6 -24 6 8 23 36 17 49 60 27 87 -14
17 -70 19 -87 2 -9 -9 -12 -9 -12 0 0 14 34 30 63 31 10 1 31 -6 46 -14z m672
-11 c42 -38 14 -116 -69 -191 l-47 -42 61 -1 c34 0 65 5 72 12 9 9 12 7 12
-10 0 -21 -4 -22 -85 -22 l-86 0 55 64 c64 75 86 133 66 170 -15 30 -51 38
-86 20 -32 -17 -37 -17 -32 -2 11 31 106 32 139 2z m-5463 -86 c-3 85 -1 102
12 102 13 0 15 -21 12 -137 l-3 -138 -83 85 c-46 47 -93 94 -106 105 l-22 20
3 -103 c3 -86 2 -102 -11 -102 -13 0 -15 20 -12 137 l3 137 105 -105 105 -104
-3 103z m164 11 c-5 -138 9 -169 77 -169 59 0 73 23 79 128 3 58 1 96 -7 110
-10 20 -9 22 12 22 23 0 23 -2 16 -52 -4 -29 -8 -78 -8 -109 -1 -93 -55 -136
-136 -109 -44 14 -65 52 -66 117 0 26 -4 72 -8 101 -7 51 -7 52 18 52 l26 0
-3 -91z m698 69 c26 -28 26 -68 -1 -101 l-20 -27 41 -60 c25 -37 36 -60 27
-60 -20 0 -41 20 -76 73 l-33 48 26 20 c48 38 24 119 -35 119 l-30 0 3 -130
c3 -124 2 -130 -17 -130 -19 0 -20 7 -20 135 l0 135 57 0 c46 0 61 -4 78 -22z
m195 -113 l0 -135 -25 0 -25 0 0 135 0 135 25 0 25 0 0 -135z m437 126 c-11
-6 -13 -37 -10 -135 3 -120 2 -126 -17 -126 -19 0 -20 6 -17 126 3 98 1 129
-10 135 -8 6 1 9 27 9 26 0 35 -3 27 -9z m650 -127 l-3 -135 -91 95 c-49 53
-97 96 -105 96 -13 0 -14 -14 -8 -95 5 -76 4 -95 -7 -95 -10 0 -12 26 -10 127
2 71 5 129 7 131 1 2 46 -41 99 -95 l97 -98 -3 103 c-3 85 -1 102 12 102 13 0
15 -20 12 -136z m148 121 c-8 -10 -11 -51 -8 -135 3 -114 2 -120 -17 -120 -19
0 -20 7 -20 135 l0 135 29 0 c24 0 26 -2 16 -15z m1700 -5 c24 -24 27 -82 5
-100 -8 -7 -15 -20 -15 -29 0 -18 46 -90 69 -108 14 -11 14 -12 -4 -12 -26 0
-46 16 -74 61 -12 21 -30 42 -39 48 -10 5 -12 10 -4 10 23 0 52 40 52 72 0 40
-25 68 -62 68 l-29 0 3 -130 c3 -124 2 -130 -17 -130 -19 0 -20 7 -20 135 l0
135 58 0 c44 0 62 -5 77 -20z m363 -174 c10 10 8 111 -2 157 -8 35 -8 37 16
37 20 0 23 -3 15 -13 -7 -7 -13 -65 -14 -131 l-3 -118 -98 99 -98 98 3 -103
c3 -94 2 -102 -16 -102 -12 0 -16 5 -12 16 3 9 6 70 6 137 l0 122 98 -103 c54
-56 101 -99 105 -96z m917 178 c0 -8 -5 -12 -11 -8 -11 6 -98 8 -105 1 -2 -1
-6 -21 -9 -42 l-7 -40 45 0 c122 0 132 -148 12 -171 -38 -7 -85 7 -85 26 0 7
6 8 19 0 33 -17 89 -12 101 9 15 28 12 90 -4 107 -8 8 -33 14 -55 14 l-41 0 0
53 c0 30 3 57 7 60 3 4 35 7 70 7 50 0 63 -3 63 -16z m411 -61 c-21 -43 -44
-104 -51 -135 -8 -36 -18 -58 -27 -58 -7 0 -13 6 -13 13 0 31 41 131 74 180
l35 52 -70 3 c-44 2 -76 -2 -85 -9 -15 -13 -17 -9 -8 15 5 13 23 16 95 16 l89
0 -39 -77z m-2691 -50 c29 -65 57 -124 63 -130 7 -10 2 -13 -21 -13 -26 0 -31
4 -36 35 -8 41 -30 55 -84 55 -32 0 -41 -5 -50 -25 -7 -14 -12 -35 -12 -45 0
-13 -7 -20 -19 -20 -18 0 -18 2 3 48 13 26 38 84 56 130 19 45 37 82 40 82 4
0 31 -53 60 -117z m1969 67 c-27 -33 -34 -52 -37 -100 -4 -53 -2 -61 21 -84
40 -40 87 -17 87 43 0 41 -6 53 -35 69 -19 11 -19 11 5 11 36 0 60 -22 67 -62
5 -31 1 -41 -25 -67 -26 -26 -36 -29 -69 -25 -42 5 -82 42 -84 78 -3 66 7 95
54 145 44 45 54 40 16 -8z m-451 -26 c-13 -13 -16 -13 -28 0 -10 13 -10 19 0
31 11 13 14 13 27 -1 14 -14 14 -17 1 -30z m-1180 -51 c-15 -2 -42 -2 -60 0
-18 2 -6 4 27 4 33 0 48 -2 33 -4z m1181 -119 c-9 -11 -15 -12 -25 -3 -11 9
-12 15 -3 25 9 11 15 12 25 3 11 -9 12 -15 3 -25z"/>
<path d="M4693 5605 c-60 -26 -90 -123 -58 -185 19 -37 43 -50 90 -50 93 0
155 114 110 201 -25 48 -81 61 -142 34z"/>
<path d="M5336 5599 c-38 -30 -56 -71 -56 -127 0 -67 33 -102 98 -102 38 0 50
5 83 39 35 35 39 44 39 89 0 28 -5 62 -11 75 -22 49 -106 63 -153 26z"/>
<path d="M6031 5602 c-43 -21 -71 -73 -71 -130 0 -83 81 -128 159 -88 81 43
94 183 20 221 -37 20 -67 19 -108 -3z"/>
<path d="M8940 5606 c-42 -23 -73 -90 -67 -144 7 -62 41 -92 104 -92 39 0 50
5 78 35 55 58 59 155 8 195 -30 23 -86 26 -123 6z"/>
<path d="M5803 5039 c-63 -18 -92 -111 -57 -186 21 -43 54 -65 98 -65 46 0 70
15 90 56 51 107 -28 224 -131 195z"/>
<path d="M7036 4937 c-9 -23 -16 -46 -16 -50 0 -4 20 -7 45 -7 25 0 45 2 45 5
0 11 -45 95 -51 95 -3 0 -14 -19 -23 -43z"/>
</g>
</svg>
